<svg width="1024" height="1024" viewBox="0 0 1024 1024" fill="none" xmlns="http://www.w3.org/2000/svg">
<rect width="1024" height="1024" fill="white"/>
<path fill-rule="evenodd" clip-rule="evenodd" d="M512.068 832.921C477.531 832.921 444.43 828.255 413.294 819.694C407.246 818.028 400.689 818.655 394.948 821.188L327.321 851.054C309.599 858.877 289.514 846.314 288.921 826.948L287.001 766.148C286.775 758.666 283.404 751.724 277.828 746.734C211.411 687.342 170.734 601.339 170.734 501.828C170.734 311.581 319.788 170.734 512.068 170.734C704.347 170.734 853.401 311.581 853.401 501.828C853.401 692.074 704.347 832.921 512.068 832.921ZM561.134 485.828C568.45 491.317 578.596 491.144 585.881 485.614L693.401 403.908C707.773 392.998 726.7 410.188 717.081 425.454L616.814 584.601C600.868 609.905 566.713 616.202 542.788 598.254L463.001 538.308C455.686 532.821 445.54 532.994 438.254 538.521L330.734 620.228C316.362 631.135 297.431 613.945 307.054 598.681L407.321 439.534C423.268 414.229 457.418 407.935 481.348 425.881L561.134 485.828Z" stroke="url(#paint0_radial_11702_80873)" stroke-width="85.3333"/>
<defs>
<radialGradient id="paint0_radial_11702_80873" cx="0" cy="0" r="1" gradientUnits="userSpaceOnUse" gradientTransform="translate(302.13 849.75) rotate(32.9085) scale(743.83 743.83)">
<stop stop-color="#0099FF"/>
<stop offset="0.609754" stop-color="#A033FF"/>
<stop offset="0.934823" stop-color="#FF5280"/>
<stop offset="1" stop-color="#FF7061"/>
</radialGradient>
</defs>
</svg>
