<svg version="1.1" id="Layer_1" xmlns="http://www.w3.org/2000/svg" xmlns:xlink="http://www.w3.org/1999/xlink" x="0px" y="0px"
	 width="100%" viewBox="0 0 167 167" enable-background="new 0 0 167 167" xml:space="preserve">
<path fill="#1D1D1D" opacity="1.000000" stroke="none" 
	d="
M92.000000,168.000000 
	C61.333336,168.000000 31.166674,168.000000 1.000008,168.000000 
	C1.000005,112.333344 1.000005,56.666687 1.000003,1.000023 
	C56.666653,1.000015 112.333305,1.000015 167.999969,1.000008 
	C167.999969,56.666641 167.999969,112.333282 167.999985,167.999969 
	C142.833328,168.000000 117.666664,168.000000 92.000000,168.000000 
M35.005802,28.002016 
	C35.005802,28.002016 35.058250,28.036959 34.331890,28.018232 
	C22.562805,34.261070 17.429367,44.627701 17.093153,57.365883 
	C16.694021,72.487755 16.532715,87.649994 17.237087,102.749542 
	C17.505457,108.502609 19.112255,115.147537 22.473043,119.602753 
	C29.400764,128.786469 37.836082,136.850601 45.880512,145.153107 
	C46.951271,146.258209 49.357933,146.068939 51.921532,146.786240 
	C56.151070,147.344757 59.876373,146.184341 62.434967,142.774628 
	C66.088303,137.906021 70.700951,136.708588 76.658691,136.881317 
	C91.471512,137.310745 106.309914,137.259583 121.129166,136.960785 
	C138.821625,136.604034 152.213684,121.296394 151.929306,105.826080 
	C151.626251,89.340622 151.372986,72.826828 151.995483,56.359325 
	C152.645264,39.170143 137.420883,23.658075 119.294899,23.905388 
	C97.144409,24.207607 74.986008,23.890036 52.832607,24.053921 
	C48.603146,24.085209 44.381020,25.107645 39.427868,25.946068 
	C37.959877,26.651506 36.491886,27.356945 35.005802,28.002016 
z"/>
<path fill="#EDEEFC" opacity="1.000000" stroke="none" 
	d="
M40.155510,25.672798 
	C44.381020,25.107645 48.603146,24.085209 52.832607,24.053921 
	C74.986008,23.890036 97.144409,24.207607 119.294899,23.905388 
	C137.420883,23.658075 152.645264,39.170143 151.995483,56.359325 
	C151.372986,72.826828 151.626251,89.340622 151.929306,105.826080 
	C152.213684,121.296394 138.821625,136.604034 121.129166,136.960785 
	C106.309914,137.259583 91.471512,137.310745 76.658691,136.881317 
	C70.700951,136.708588 66.088303,137.906021 62.434967,142.774628 
	C59.876373,146.184341 56.151070,147.344757 51.253639,146.466278 
	C43.396469,139.070648 36.078461,132.119919 29.055239,124.883095 
	C22.442715,118.069450 20.584867,109.678696 20.848272,100.285820 
	C21.273062,85.138077 21.058222,69.968803 20.915081,54.810501 
	C20.858135,48.780075 22.517952,43.352165 25.979465,38.597771 
	C28.702951,34.857059 32.010269,31.541416 35.058250,28.036961 
	C35.058250,28.036959 35.005802,28.002016 35.377987,28.143007 
	C37.218620,27.413599 38.687065,26.543200 40.155510,25.672798 
M58.768578,36.064560 
	C44.769096,36.567131 37.910049,41.950615 36.231686,52.007942 
	C34.728531,61.015362 35.915321,70.471680 35.915321,79.978134 
	C37.427593,79.978134 38.414673,79.879845 39.376198,79.994957 
	C43.806545,80.525337 47.061481,79.698654 49.194340,74.928932 
	C51.638256,69.463600 54.992027,64.360641 58.365082,59.381062 
	C59.444622,57.787357 61.711914,56.612778 63.664604,56.070614 
	C68.839500,54.633804 70.397934,58.490547 71.840759,62.289360 
	C75.979652,73.186646 80.134262,84.077965 84.477371,95.482864 
	C85.291031,93.972595 85.841446,93.159515 86.192314,92.267914 
	C90.400780,81.573647 94.427200,70.803085 98.911636,60.226482 
	C99.687477,58.396652 102.181129,56.802937 104.221626,56.126083 
	C106.775749,55.278847 109.029564,56.042988 110.584366,59.092041 
	C113.626289,65.057419 117.183746,70.773109 120.770760,76.438324 
	C121.702278,77.909523 123.396652,79.518959 124.978424,79.821442 
	C127.833763,80.367462 130.868393,79.975899 134.262268,79.975899 
	C134.262268,70.271881 134.281281,60.991154 134.226257,51.710873 
	C134.221832,50.966499 133.686630,50.232140 133.432968,49.481339 
	C129.890762,38.996544 121.438499,36.230446 111.684059,36.119759 
	C94.363457,35.923210 77.039024,36.064564 58.768578,36.064560 
M109.219780,79.303932 
	C108.248444,77.734375 107.277100,76.164825 105.974037,74.059258 
	C104.761139,76.288635 103.807266,77.768364 103.113586,79.361389 
	C98.653557,89.603729 94.108055,99.813065 89.907791,110.161964 
	C88.482086,113.674713 86.164955,114.046059 82.948219,114.111031 
	C79.646027,114.177727 78.311531,112.466812 77.278740,109.796631 
	C72.791817,98.196098 68.233589,86.623161 63.510796,74.553406 
	C60.901886,78.697395 58.190224,82.364929 56.191090,86.386650 
	C54.649582,89.487747 52.476646,90.137726 49.436077,90.053734 
	C44.996841,89.931129 40.551704,90.022224 36.836994,90.022224 
	C31.643330,107.674088 41.021378,118.845070 52.832558,129.194122 
	C55.762218,124.515961 60.459694,124.257004 65.457603,124.265259 
	C82.779411,124.293884 100.103439,124.256805 117.422569,123.985649 
	C124.201355,123.879509 130.195923,120.634995 131.982285,114.200623 
	C134.082748,106.634880 134.160110,98.507454 135.165100,90.208153 
	C124.762497,89.385307 113.336006,93.499710 109.219780,79.303932 
z"/>
<path fill="#44C5E9" opacity="1.000000" stroke="none" 
	d="
M34.695072,28.027596 
	C32.010269,31.541416 28.702951,34.857059 25.979465,38.597771 
	C22.517952,43.352165 20.858135,48.780075 20.915081,54.810501 
	C21.058222,69.968803 21.273062,85.138077 20.848272,100.285820 
	C20.584867,109.678696 22.442715,118.069450 29.055239,124.883095 
	C36.078461,132.119919 43.396469,139.070648 50.865837,146.312714 
	C49.357933,146.068939 46.951271,146.258209 45.880512,145.153107 
	C37.836082,136.850601 29.400764,128.786469 22.473043,119.602753 
	C19.112255,115.147537 17.505457,108.502609 17.237087,102.749542 
	C16.532715,87.649994 16.694021,72.487755 17.093153,57.365883 
	C17.429367,44.627701 22.562805,34.261070 34.695072,28.027596 
z"/>
<path fill="#44C5E9" opacity="1.000000" stroke="none" 
	d="
M39.791687,25.809433 
	C38.687065,26.543200 37.218620,27.413599 35.387032,28.173191 
	C36.491886,27.356945 37.959877,26.651506 39.791687,25.809433 
z"/>
<path fill="#1D1D1D" opacity="1.000000" stroke="none" 
	d="
M59.242386,36.064556 
	C77.039024,36.064564 94.363457,35.923210 111.684059,36.119759 
	C121.438499,36.230446 129.890762,38.996544 133.432968,49.481339 
	C133.686630,50.232140 134.221832,50.966499 134.226257,51.710873 
	C134.281281,60.991154 134.262268,70.271881 134.262268,79.975899 
	C130.868393,79.975899 127.833763,80.367462 124.978424,79.821442 
	C123.396652,79.518959 121.702278,77.909523 120.770760,76.438324 
	C117.183746,70.773109 113.626289,65.057419 110.584366,59.092041 
	C109.029564,56.042988 106.775749,55.278847 104.221626,56.126083 
	C102.181129,56.802937 99.687477,58.396652 98.911636,60.226482 
	C94.427200,70.803085 90.400780,81.573647 86.192314,92.267914 
	C85.841446,93.159515 85.291031,93.972595 84.477371,95.482864 
	C80.134262,84.077965 75.979652,73.186646 71.840759,62.289360 
	C70.397934,58.490547 68.839500,54.633804 63.664604,56.070614 
	C61.711914,56.612778 59.444622,57.787357 58.365082,59.381062 
	C54.992027,64.360641 51.638256,69.463600 49.194340,74.928932 
	C47.061481,79.698654 43.806545,80.525337 39.376198,79.994957 
	C38.414673,79.879845 37.427593,79.978134 35.915321,79.978134 
	C35.915321,70.471680 34.728531,61.015362 36.231686,52.007942 
	C37.910049,41.950615 44.769096,36.567131 59.242386,36.064556 
z"/>
<path fill="#1D1D1D" opacity="1.000000" stroke="none" 
	d="
M109.493134,79.572769 
	C113.336006,93.499710 124.762497,89.385307 135.165100,90.208153 
	C134.160110,98.507454 134.082748,106.634880 131.982285,114.200623 
	C130.195923,120.634995 124.201355,123.879509 117.422569,123.985649 
	C100.103439,124.256805 82.779411,124.293884 65.457603,124.265259 
	C60.459694,124.257004 55.762218,124.515961 52.832558,129.194122 
	C41.021378,118.845070 31.643330,107.674088 36.836994,90.022224 
	C40.551704,90.022224 44.996841,89.931129 49.436077,90.053734 
	C52.476646,90.137726 54.649582,89.487747 56.191090,86.386650 
	C58.190224,82.364929 60.901886,78.697395 63.510796,74.553406 
	C68.233589,86.623161 72.791817,98.196098 77.278740,109.796631 
	C78.311531,112.466812 79.646027,114.177727 82.948219,114.111031 
	C86.164955,114.046059 88.482086,113.674713 89.907791,110.161964 
	C94.108055,99.813065 98.653557,89.603729 103.113586,79.361389 
	C103.807266,77.768364 104.761139,76.288635 105.974037,74.059258 
	C107.277100,76.164825 108.248444,77.734375 109.493134,79.572769 
z"/>
</svg>