<svg width="1024" height="1024" viewBox="0 0 1024 1024" fill="none" xmlns="http://www.w3.org/2000/svg">
<g id="logo">
<rect id="Rectangle 1" width="1024" height="1024" fill="#78FBC1"/>
<g id="Group 1000006577">
<path id="Ellipse 656" d="M443.81 724.378C550.848 730.613 637.901 649.004 644.128 542.1C645.299 521.991 642.581 288.233 643.834 266.726L532.182 318.446C493.215 316.176 505.409 320.551 469.262 318.446C362.224 312.212 267.501 412.618 261.274 519.522C255.048 626.427 336.772 718.144 443.81 724.378Z" fill="white"/>
<path id="Ellipse 656 (Stroke)" d="M718.505 200.945C733.833 188.374 757.036 199.25 757.036 219.214V507.346C757.035 651.01 640.572 767.473 496.908 767.473C353.243 767.473 236.78 651.01 236.78 507.346L236.786 505.663C237.691 362.773 353.804 247.218 496.908 247.218H637.531C645.557 247.218 652.006 250.886 656.128 256.236C657.51 253.628 659.384 251.272 661.684 249.313L718.145 201.247L718.505 200.945ZM653.127 288.519L589.03 344.979C584.721 348.775 579.176 350.869 573.434 350.869H496.908C410.488 350.869 340.431 420.926 340.431 507.346L340.444 509.368C341.527 594.855 411.163 663.821 496.908 663.821C583.327 663.821 653.384 593.765 653.384 507.346V288.287L653.127 288.519Z" fill="#1B2020" stroke="white" stroke-width="34.0584"/>
<path id="Vector 708" d="M413.116 555.591C442.298 590.871 520.698 635.733 583.853 555.591" stroke="#1B2020" stroke-width="48" stroke-linecap="square" stroke-linejoin="round"/>
</g>
</g>
</svg>
